<svg id="Layer" height="512" viewBox="0 0 24 24" width="512" xmlns="http://www.w3.org/2000/svg"><path id="alarm-times-alt" d="m17.47 3.53a.75.75 0 0 1 1.06-1.06l2 2a.75.75 0 1 1 -1.06 1.06zm-12.94 0a.75.75 0 0 0 -1.06-1.06l-2 2a.75.75 0 1 0 1.06 1.06zm6.5 15.72a7.125 7.125 0 0 1 -3.63-.981 7.245 7.245 0 1 1 9.9-9.888 7.1 7.1 0 0 1 .922 2.715.75.75 0 0 0 1.488-.192 8.6 8.6 0 0 0 -1.11-3.277 8.742 8.742 0 1 0 -12.7 11.437l-1.422 1.4a.75.75 0 1 0 1.052 1.068l1.7-1.678a8.637 8.637 0 0 0 3.8.894.75.75 0 1 0 0-1.5zm-.78-11.21v4a.75.75 0 0 0 1.5 0v-4a.75.75 0 0 0 -1.5 0zm12.5 8.96v2a3.383 3.383 0 0 1 -3.75 3.75h-2a3.383 3.383 0 0 1 -3.75-3.75v-2a3.383 3.383 0 0 1 3.75-3.75h2a3.383 3.383 0 0 1 3.75 3.75zm-1.5 0c0-1.577-.673-2.25-2.25-2.25h-2c-1.577 0-2.25.673-2.25 2.25v2c0 1.577.673 2.25 2.25 2.25h2c1.577 0 2.25-.673 2.25-2.25zm-1.72-.53a.749.749 0 0 0 -1.06 0l-.47.469-.47-.469a.75.75 0 0 0 -1.06 1.06l.469.47-.469.47a.75.75 0 1 0 1.06 1.06l.47-.469.47.469a.75.75 0 0 0 1.06-1.06l-.469-.47.469-.47a.749.749 0 0 0 0-1.06z" fill="rgb(0,0,0)"/></svg>