<svg width="32" height="32" viewBox="0 0 32 32" fill="none" xmlns="http://www.w3.org/2000/svg">
<path fill-rule="evenodd" clip-rule="evenodd" d="M21 20C21 18.3431 22.3431 17 24 17C25.6569 17 27 18.3431 27 20V24C27 25.6569 25.6569 27 24 27C22.3431 27 21 25.6569 21 24V20ZM25 20C25 19.4477 24.5523 19 24 19C23.4477 19 23 19.4477 23 20V24C23 24.5523 23.4477 25 24 25C24.5523 25 25 24.5523 25 24V20Z" fill="#464646"/>
<path fill-rule="evenodd" clip-rule="evenodd" d="M13 8C13 6.34315 14.3431 5 16 5C17.6569 5 19 6.34315 19 8V24C19 25.6569 17.6569 27 16 27C14.3431 27 13 25.6569 13 24V8ZM17 8C17 7.44772 16.5523 7 16 7C15.4477 7 15 7.44772 15 8V24C15 24.5523 15.4477 25 16 25C16.5523 25 17 24.5523 17 24V8Z" fill="#464646"/>
<path fill-rule="evenodd" clip-rule="evenodd" d="M5 16C5 14.3431 6.34315 13 8 13C9.65685 13 11 14.3431 11 16V24C11 25.6569 9.65685 27 8 27C6.34315 27 5 25.6569 5 24V16ZM9 16C9 15.4477 8.55228 15 8 15C7.44772 15 7 15.4477 7 16V24C7 24.5523 7.44772 25 8 25C8.55228 25 9 24.5523 9 24V16Z" fill="#464646"/>
</svg>
