<svg clip-rule="evenodd" fill-rule="evenodd" height="512" stroke-linejoin="round" stroke-miterlimit="2" viewBox="0 0 64 64" width="512" xmlns="http://www.w3.org/2000/svg"><g id="ICON"><path d="m49.095 52.876c-1.661 1.621-3.523 3.187-5.414 4.306-.72.425-.959 1.355-.533 2.074.425.72 1.355.959 2.075.533 2.915-1.724 5.781-4.403 8.044-6.868.29-.316 1.66-1.677 2.134-2.444.418-.674.403-1.283.309-1.614-.071-.249-.253-.661-.772-.972-.541-.324-2.946-.939-3.225-1.026-3.601-1.116-7.478-1.538-11.234-1.445-.836.021-1.498.716-1.477 1.552s.716 1.497 1.552 1.477c3.134-.078 6.362.228 9.404 1.059-1.913.611-3.918.939-5.908 1.357-12.02 2.523-23.244.393-28.891-11.727-4.631-9.938-3.466-22.982-3.797-33.67-.026-.836-.725-1.493-1.561-1.467-.835.026-1.493.725-1.467 1.561.343 11.069-.718 24.563 4.079 34.856 6.328 13.579 18.792 16.239 32.259 13.411 1.482-.311 2.967-.59 4.423-.953z"/></g></svg>