<svg id="Line" viewBox="0 0 64 64" xmlns="http://www.w3.org/2000/svg"><path d="m52.49 43.86c5.42-4.39 8.51-10.85 8.51-17.86 0-12.68-10.32-23-23-23-7.13 0-13.71 3.22-18.11 8.83-9.73 2.69-16.89 11.6-16.89 22.17 0 7.01 3.09 13.47 8.51 17.86-.81 1.77-1.91 3.38-3.28 4.79-.25.26-.34.63-.25.97s.37.61.72.7c.78.19 1.91.4 3.27.4 1.58 0 3.46-.27 5.42-1.15.85-.38 1.66-.85 2.41-1.41 2.01.56 4.09.85 6.2.85 7.33 0 13.87-3.45 18.08-8.81.04-.01.08-.02.12-.03.75.56 1.56 1.03 2.41 1.41 1.96.88 3.84 1.15 5.42 1.15 1.36 0 2.49-.2 3.27-.4.35-.09.62-.35.72-.7s0-.71-.25-.97c-1.37-1.41-2.47-3.01-3.28-4.79zm-26.49 11.14c-2.09 0-4.15-.31-6.12-.91-.32-.1-.66-.03-.92.18-.73.59-1.54 1.08-2.39 1.46-2.14.96-4.17 1.07-5.69.93 1.15-1.44 2.08-3.02 2.78-4.74.17-.42.04-.9-.32-1.17-5.3-4.01-8.33-10.11-8.33-16.75 0-11.58 9.42-21 21-21s21 9.42 21 21-9.42 21-21 21zm21.43-7.26c-.75-.33-1.45-.77-2.11-1.27 1.99-3.07 3.26-6.63 3.59-10.47h1.09c.55 0 1-.45 1-1s-.45-1-1-1h-1c0-1.36-.13-2.7-.36-4h1.36c.55 0 1-.45 1-1s-.45-1-1-1h-1.8c-.38-1.39-.87-2.73-1.49-4h3.29c.55 0 1-.45 1-1s-.45-1-1-1h-4.39c-.89-1.45-1.94-2.79-3.11-4h7.5c.55 0 1-.45 1-1s-.45-1-1-1h-9.71c-3.93-3.13-8.89-5-14.29-5-.98 0-1.94.07-2.88.19 3.93-3.96 9.21-6.19 14.88-6.19 11.58 0 21 9.42 21 21 0 6.64-3.04 12.75-8.33 16.75-.36.27-.49.75-.32 1.17.7 1.72 1.63 3.31 2.78 4.74-1.52.14-3.55.03-5.7-.93zm-28.43-14.95c-.26 0-.51-.1-.71-.29-.39-.39-.39-1.02 0-1.41l1.12-1.12-1.12-1.12c-.39-.39-.39-1.02 0-1.41s1.02-.39 1.41 0l1.12 1.12 1.12-1.12c.39-.39 1.02-.39 1.41 0s.39 1.02 0 1.41l-1.12 1.12 1.12 1.12c.39.39.39 1.02 0 1.41-.2.2-.45.29-.71.29s-.51-.1-.71-.29l-1.12-1.12-1.12 1.12c-.2.2-.45.29-.71.29zm14.71-3.95-1.12 1.12 1.12 1.12c.39.39.39 1.02 0 1.41-.2.2-.45.29-.71.29s-.51-.1-.71-.29l-1.12-1.12-1.12 1.12c-.2.2-.45.29-.71.29s-.51-.1-.71-.29c-.39-.39-.39-1.02 0-1.41l1.12-1.12-1.12-1.12c-.39-.39-.39-1.02 0-1.41s1.02-.39 1.41 0l1.12 1.12 1.12-1.12c.39-.39 1.02-.39 1.41 0s.39 1.02 0 1.41zm-.36 12.29c.26.49.08 1.09-.41 1.35-.15.08-.31.12-.47.12-.36 0-.7-.19-.88-.53-1.1-2.07-3.24-3.35-5.58-3.35s-4.48 1.28-5.58 3.35c-.26.49-.87.67-1.35.41-.49-.26-.67-.87-.41-1.35 1.45-2.72 4.27-4.41 7.35-4.41s5.9 1.69 7.35 4.41z"/></svg>