<svg width="32" height="32" viewBox="0 0 32 32" fill="none" xmlns="http://www.w3.org/2000/svg">
<path d="M28 20C28.5523 20 29 20.4477 29 21C29 21.5128 28.614 21.9355 28.1166 21.9933L28 22H16C15.4477 22 15 21.5523 15 21C15 20.4872 15.386 20.0645 15.8834 20.0067L16 20H28Z" fill="#464646"/>
<path fill-rule="evenodd" clip-rule="evenodd" d="M9 21C9 18.7909 10.7909 17 13 17C15.2091 17 17 18.7909 17 21C17 23.2091 15.2091 25 13 25C10.7909 25 9 23.2091 9 21ZM15 21C15 19.8954 14.1046 19 13 19C11.8954 19 11 19.8954 11 21C11 22.1046 11.8954 23 13 23C14.1046 23 15 22.1046 15 21Z" fill="#464646"/>
<path d="M10 20C10.5523 20 11 20.4477 11 21C11 21.5128 10.614 21.9355 10.1166 21.9933L10 22H4C3.44772 22 3 21.5523 3 21C3 20.4872 3.38604 20.0645 3.88338 20.0067L4 20H10Z" fill="#464646"/>
<path d="M28 10C28.5523 10 29 10.4477 29 11C29 11.5128 28.614 11.9355 28.1166 11.9933L28 12H22C21.4477 12 21 11.5523 21 11C21 10.4872 21.386 10.0645 21.8834 10.0067L22 10H28Z" fill="#464646"/>
<path fill-rule="evenodd" clip-rule="evenodd" d="M15 11C15 8.79086 16.7909 7 19 7C21.2091 7 23 8.79086 23 11C23 13.2091 21.2091 15 19 15C16.7909 15 15 13.2091 15 11ZM21 11C21 9.89543 20.1046 9 19 9C17.8954 9 17 9.89543 17 11C17 12.1046 17.8954 13 19 13C20.1046 13 21 12.1046 21 11Z" fill="#464646"/>
<path d="M16 10C16.5523 10 17 10.4477 17 11C17 11.5128 16.614 11.9355 16.1166 11.9933L16 12H4C3.44772 12 3 11.5523 3 11C3 10.4872 3.38604 10.0645 3.88338 10.0067L4 10H16Z" fill="#464646"/>
</svg>
