<svg width="32" height="32" viewBox="0 0 32 32" fill="none" xmlns="http://www.w3.org/2000/svg">
<g clip-path="url(#clip0_211_63016)">
<path d="M8 7.99996C8 7.64634 8.14048 7.3072 8.39052 7.05715C8.64057 6.8071 8.97971 6.66663 9.33333 6.66663H12C12.3536 6.66663 12.6928 6.8071 12.9428 7.05715C13.1929 7.3072 13.3333 7.64634 13.3333 7.99996V24C13.3333 24.3536 13.1929 24.6927 12.9428 24.9428C12.6928 25.1928 12.3536 25.3333 12 25.3333H9.33333C8.97971 25.3333 8.64057 25.1928 8.39052 24.9428C8.14048 24.6927 8 24.3536 8 24V7.99996Z" stroke="black" stroke-width="1.5" stroke-linecap="round" stroke-linejoin="round"/>
<path d="M18.6665 7.99996C18.6665 7.64634 18.807 7.3072 19.057 7.05715C19.3071 6.8071 19.6462 6.66663 19.9998 6.66663H22.6665C23.0201 6.66663 23.3593 6.8071 23.6093 7.05715C23.8594 7.3072 23.9998 7.64634 23.9998 7.99996V24C23.9998 24.3536 23.8594 24.6927 23.6093 24.9428C23.3593 25.1928 23.0201 25.3333 22.6665 25.3333H19.9998C19.6462 25.3333 19.3071 25.1928 19.057 24.9428C18.807 24.6927 18.6665 24.3536 18.6665 24V7.99996Z" stroke="black" stroke-width="1.5" stroke-linecap="round" stroke-linejoin="round"/>
</g>
<defs>
<clipPath id="clip0_211_63016">
<rect width="32" height="32" fill="white"/>
</clipPath>
</defs>
</svg>
