<svg width="32" height="32" viewBox="0 0 32 32" fill="none" xmlns="http://www.w3.org/2000/svg">
<path d="M19.2929 19.2929C19.6534 18.9324 20.2206 18.9047 20.6129 19.2097L20.7071 19.2929L26.7071 25.2929C27.0976 25.6834 27.0976 26.3166 26.7071 26.7071C26.3466 27.0676 25.7794 27.0953 25.3871 26.7903L25.2929 26.7071L19.2929 20.7071C18.9024 20.3166 18.9024 19.6834 19.2929 19.2929Z" fill="#464646"/>
<path fill-rule="evenodd" clip-rule="evenodd" d="M5 14C5 9.02944 9.02944 5 14 5C18.9706 5 23 9.02944 23 14C23 18.9706 18.9706 23 14 23C9.02944 23 5 18.9706 5 14ZM21 14C21 10.134 17.866 7 14 7C10.134 7 7 10.134 7 14C7 17.866 10.134 21 14 21C17.866 21 21 17.866 21 14Z" fill="#464646"/>
</svg>
