<svg width="32" height="32" viewBox="0 0 32 32" fill="none" xmlns="http://www.w3.org/2000/svg">
<path fill-rule="evenodd" clip-rule="evenodd" d="M14.6614 3.00526L14.8403 3H17.1597C18.72 3 20.0198 4.19599 20.1494 5.75069L20.247 6.92L20.3505 6.9674C20.8017 7.18234 21.2359 7.43084 21.6495 7.71055L21.746 7.778L22.8013 7.28197C24.1562 6.64335 25.7639 7.10411 26.5806 8.33747L26.6785 8.49564L27.8382 10.5044C28.6183 11.8556 28.2325 13.5792 26.9509 14.4687L26.014 15.118L26.0261 15.2402C26.0356 15.3661 26.0427 15.4924 26.0475 15.6191L26.0546 16C26.0546 16.2545 26.0451 16.5079 26.0261 16.7598L26.014 16.881L26.9507 17.5311C28.1812 18.3852 28.586 20.0079 27.9262 21.3318L27.8382 21.4956L26.6785 23.5044C25.8983 24.8556 24.2127 25.3833 22.8014 24.7181L21.746 24.221L21.6498 24.2893C21.2363 24.5689 20.8023 24.8173 20.3513 25.0322L20.248 25.079L20.1494 26.2491C20.0248 27.7442 18.8183 28.9075 17.3386 28.9947L17.1597 29H14.8403C13.28 29 11.9802 27.804 11.8506 26.2493L11.748 25.024L11.5615 24.936C11.1891 24.7483 10.8288 24.5376 10.4829 24.3051L10.319 24.19L9.19868 24.718C7.84378 25.3566 6.23609 24.8959 5.41943 23.6625L5.32154 23.5044L4.16181 21.4956C3.38167 20.1444 3.76753 18.4208 5.04897 17.5313L6.088 16.809L6.08025 16.7209C6.07172 16.6014 6.06531 16.4815 6.06104 16.3613L6.05462 16C6.05462 15.7584 6.06321 15.5178 6.08029 15.2785L6.088 15.189L5.0493 14.4689C3.8188 13.6148 3.41397 11.9921 4.07377 10.6682L4.16181 10.5044L5.32154 8.49564C6.10167 7.14441 7.78733 6.61675 9.19816 7.28173L10.319 7.809L10.4829 7.69492C10.8288 7.46242 11.1891 7.25166 11.5615 7.06405L11.748 6.975L11.8506 5.75086C11.9752 4.25579 13.1817 3.09253 14.6614 3.00526ZM17.1597 5H14.8403C14.3202 5 13.8869 5.39866 13.8437 5.91717L13.6408 8.34524L13.0691 8.5754C12.3456 8.86662 11.6691 9.26283 11.0603 9.75004L10.5736 10.1395L8.34597 9.09108C7.87552 8.86934 7.31363 9.04523 7.05359 9.49564L5.89386 11.5044C5.63381 11.9548 5.76243 12.5293 6.18963 12.8258L8.22456 14.238L8.13658 14.8496C8.08214 15.2281 8.05462 15.6122 8.05462 16C8.05462 16.3875 8.0821 16.7713 8.13646 17.1495L8.22431 17.7607L6.18969 19.1741C5.76243 19.4707 5.63381 20.0452 5.89386 20.4956L7.05359 22.5044C7.31363 22.9548 7.87552 23.1307 8.34648 22.9087L10.5736 21.8605L11.0603 22.25C11.6691 22.7372 12.3456 23.1334 13.0691 23.4246L13.6408 23.6548L13.8437 26.083C13.8869 26.6013 14.3202 27 14.8403 27H17.1597C17.6798 27 18.1131 26.6013 18.1563 26.0823L18.3575 23.6896L18.9407 23.4639C19.6873 23.1749 20.3857 22.7748 21.0134 22.2782L21.4995 21.8937L23.654 22.9089C24.1245 23.1307 24.6864 22.9548 24.9464 22.5044L26.1061 20.4956C26.3662 20.0452 26.2376 19.4707 25.8101 19.174L23.8703 17.8268L23.9637 17.2109C24.0241 16.8129 24.0546 16.4085 24.0546 16C24.0546 15.5915 24.0241 15.1871 23.9637 14.7891L23.8703 14.1732L25.8103 12.8259C26.2376 12.5293 26.3662 11.9548 26.1061 11.5044L24.9464 9.49564C24.6864 9.04523 24.1245 8.86934 23.6539 9.09114L21.4995 10.1063L21.0134 9.72179C20.3855 9.22505 19.6868 8.82473 18.9398 8.53578L18.3561 8.31L18.1563 5.91695C18.1131 5.39866 17.6798 5 17.1597 5Z" fill="#464646"/>
<path fill-rule="evenodd" clip-rule="evenodd" d="M11.0546 16C11.0546 13.2386 13.2932 11 16.0546 11C18.816 11 21.0546 13.2386 21.0546 16C21.0546 18.7614 18.816 21 16.0546 21C13.2932 21 11.0546 18.7614 11.0546 16ZM19.0546 16C19.0546 14.3431 17.7115 13 16.0546 13C14.3978 13 13.0546 14.3431 13.0546 16C13.0546 17.6569 14.3978 19 16.0546 19C17.7115 19 19.0546 17.6569 19.0546 16Z" fill="#464646"/>
</svg>
